#!OML:ASF \\sashay\E\Suitcase\Project 1\Capture day 1\Session 1\Male1.ASF
:FULLY-SPECIFIED
:DEGREES
470
root -1.44563 17.5127 9.78714 2.97702 8.63688 -1.71471
lowerback 0.78713 -1.11737 2.64332
upperback -2.04465 -1.4002 1.48976
thorax -2.56675 -0.734869 0.091396
lowerneck -11.1114 -4.09218 -8.82963
upperneck 18.0743 -3.53291 -2.01145
head 7.5643 -2.46721 0.439615
rclavicle 1.58251e-014 1.03368e-014
rhumerus -22.3448 -34.5627 -62.2254
rradius 7.60657
rwrist 2.63247
rhand -14.1597 23.6981
rfingers 7.12502
rthumb 11.9751 -5.93934
lclavicle 1.58251e-014 1.03368e-014
lhumerus -39.9616 -3.67127 87.3896
lradius 38.9441
lwrist -2.35806
lhand 0.640797 45.2453
lfingers 7.12502
lthumb 26.204 73.4564
rfemur -3.98757 -3.88097 23.8644
rtibia 16.8954
rfoot -12.7202 -20.5036
rtoes 14.6297
lfemur -6.93905 -6.17781 -9.94878
ltibia 16.6592
lfoot -12.69 0.650348
ltoes -7.50164
471
root -1.45082 17.5165 9.78259 2.93163 8.44036 -1.60885
lowerback 0.790684 -1.058 2.4619
upperback -2.11104 -1.32442 1.4298
thorax -2.63263 -0.695026 0.129881
lowerneck -10.7284 -4.0913 -8.73917
upperneck 18.2733 -3.58892 -1.99273
head 7.56157 -2.491 0.431391
rclavicle -1.76421e-015 -9.14409e-015
rhumerus -22.511 -34.4994 -62.3334
rradius 8.34523
rwrist 2.82666
rhand -13.9632 23.8388
rfingers 7.12502
rthumb 12.1645 -5.78754
lclavicle -1.76421e-015 -9.14409e-015
lhumerus -40.0793 -3.85578 87.4364
lradius 38.7599
lwrist -2.65763
lhand 0.47744 44.9657
lfingers 7.12502
lthumb 26.0476 73.1999
rfemur -4.04955 -3.60981 23.7334
rtibia 16.9231
rfoot -12.3748 -20.6313
rtoes 14.6922
lfemur -6.7608 -6.2954 -10.0853
ltibia 16.5439
lfoot -12.7759 0.694125
ltoes -8.85172
472
root -1.46184 17.5124 9.76513 3.01648 8.4484 -1.73052
lowerback 0.807243 -1.08944 2.43793
upperback -2.21223 -1.36259 1.47284
thorax -2.74531 -0.714462 0.190635
lowerneck -10.6091 -4.08157 -8.64568
upperneck 18.5479 -3.59663 -1.99759
head 7.62877 -2.49699 0.413651
rclavicle 6.85186e-015 -1.78906e-014
rhumerus -22.1867 -34.342 -62.5278
rradius 8.55185
rwrist 2.76515
rhand -13.6781 23.9331
rfingers 7.12502
rthumb 12.4395 -5.67673
lclavicle 6.85186e-015 -1.78906e-014
lhumerus -40.0439 -3.82313 87.4057
lradius 38.5843
lwrist -2.73569
lhand 0.327554 45.2646
lfingers 7.12502
lthumb 25.9041 73.5199
rfemur -4.08558 -3.66601 23.9225
rtibia 16.8492
rfoot -12.7103 -20.4337
rtoes 15.6365
lfemur -6.96061 -6.322 -9.89144
ltibia 16.5339
lfoot -12.6101 0.873791
ltoes -7.50828
473
root -1.46695 17.5117 9.76008 2.95678 8.4059 -1.64692
lowerback 0.831949 -1.11857 2.26871
upperback -2.3202 -1.40289 1.42698
thorax -2.86793 -0.732845 0.241715
lowerneck -10.1127 -4.03503 -8.52014
upperneck 18.727 -3.60349 -2.00355
head 7.59594 -2.49598 0.399292
rclavicle 6.68413e-015 1.51076e-014
rhumerus -22.0522 -34.0652 -62.6066
rradius 8.73349
rwrist 2.84272
rhand -13.5375 23.4979
rfingers 7.12502
rthumb 12.5751 -6.10363
lclavicle 6.68413e-015 1.51076e-014
lhumerus -40.1473 -3.73215 87.3342
lradius 38.1518
lwrist -2.73396
lhand -0.203865 44.9154
lfingers 7.12502
lthumb 25.3951 73.2441
rfemur -3.96489 -3.74946 23.815
rtibia 16.7015
rfoot -12.4817 -20.2622
rtoes 16.0254
lfemur -6.84218 -6.2998 -10.0074
ltibia 16.5214
lfoot -12.2509 1.02708
ltoes -8.89524
474
root -1.46277 17.5135 9.74582 2.93146 8.38408 -2.00507
lowerback 0.868269 -1.19165 2.72319
upperback -2.39933 -1.48595 1.43254
thorax -2.98378 -0.785867 -0.00120712
lowerneck -9.94477 -3.96047 -8.21223
upperneck 18.9792 -3.55499 -2.06682
head 7.63788 -2.46443 0.334906
rclavicle -1.37596e-014 9.93923e-015
rhumerus -21.5167 -33.8961 -63.1348
rradius 8.63323
rwrist 2.86433
rhand -13.8388 23.9681
rfingers 7.12502
rthumb 12.2845 -5.65111
lclavicle -1.37596e-014 9.93923e-015
lhumerus -40.2366 -3.5398 87.0458
lradius 38.246
lwrist -3.22116
lhand 1.69021 46.2445
lfingers 7.12502
lthumb 27.2083 74.3024
rfemur -3.97867 -4.09115 24.1202
rtibia 16.5864
rfoot -12.3735 -19.8669
rtoes 16.2492
lfemur -6.91546 -6.2593 -9.64185
ltibia 16.506
lfoot -12.3126 1.04199
ltoes -8.43121
475
root -1.47954 17.5193 9.73447 2.8786 8.33156 -2.17096
lowerback 0.797794 -1.15972 2.66214
upperback -2.29491 -1.44885 1.495
thorax -2.83217 -0.76326 0.0922553
lowerneck -10.0072 -4.01749 -8.11283
upperneck 19.2036 -3.64011 -2.05639
head 7.72336 -2.50375 0.31009
rclavicle -2.99482e-014 5.56597e-015
rhumerus -20.7828 -33.9723 -63.4563
rradius 8.53065
rwrist 2.59409
rhand -14.0408 24.4936
rfingers 7.12502
rthumb 12.0898 -5.13714
lclavicle -2.99482e-014 5.56597e-015
lhumerus -39.7302 -3.45511 87.0218
lradius 37.6765
lwrist -3.42849
lhand 1.82417 46.1421
lfingers 7.12502
lthumb 27.3364 74.1799
rfemur -3.96736 -3.75831 24.366
rtibia 16.3743
rfoot -12.2112 -20.0243
rtoes 15.7346
lfemur -6.92118 -6.26451 -9.42758
ltibia 16.5334
lfoot -11.9802 1.18548
ltoes -9.01647
476
root -1.48286 17.5268 9.72346 3.00623 8.36312 -2.15424
lowerback 0.602027 -1.21733 2.59487
upperback -2.33148 -1.53387 1.49092
thorax -2.75933 -0.803921 0.124374
lowerneck -9.85183 -3.99352 -8.04128
upperneck 19.408 -3.6307 -2.0537
head 7.76104 -2.49941 0.301372
rclavicle 5.45353e-014 -7.95139e-016
rhumerus -20.3298 -33.7897 -63.7318
rradius 8.80113
rwrist 2.70236
rhand -13.7024 23.7257
rfingers 7.12502
rthumb 12.4161 -5.88558
lclavicle 5.45353e-014 -7.95139e-016
lhumerus -39.5958 -3.29719 86.9369
lradius 37.3801
lwrist -3.60761
lhand 1.60689 45.9701
lfingers 7.12502
lthumb 27.1286 74.0405
rfemur -4.06606 -3.88503 24.344
rtibia 16.199
rfoot -12.1161 -20.0181
rtoes 16.1597
lfemur -7.0846 -6.38853 -9.44004
ltibia 16.4773
lfoot -12.225 1.28654
ltoes -8.76485
477
root -1.49275 17.52 9.71096 2.93694 8.24747 -2.39239
lowerback 0.626717 -1.20452 2.65833
upperback -2.29222 -1.51281 1.60624
thorax -2.73111 -0.792915 0.206564
lowerneck -9.90707 -4.01145 -8.06167
upperneck 19.6909 -3.64011 -2.04085
head 7.86639 -2.51256 0.303535
rclavicle 2.36678e-014 7.15625e-015
rhumerus -20.13 -33.7203 -63.964
rradius 9.41027
rwrist 2.55017
rhand -13.6338 23.9051
rfingers 7.12502
rthumb 12.4822 -5.7021
lclavicle 2.36678e-014 7.15625e-015
lhumerus -39.3072 -3.17047 86.9732
lradius 36.8932
lwrist -3.41557
lhand 1.06372 46.0063
lfingers 7.12502
lthumb 26.6088 74.1567
rfemur -3.96696 -3.82732 24.6448
rtibia 16.1082
rfoot -12.2186 -19.8505
rtoes 16.4165
lfemur -7.03873 -6.30265 -9.18284
ltibia 16.4137
lfoot -11.8825 1.41509
ltoes -9.18639
478
root -1.49413 17.5266 9.70081 3.06373 8.28473 -2.15727
lowerback 0.48544 -1.2542 2.41306
upperback -2.25653 -1.59194 1.54284
thorax -2.61055 -0.826927 0.276654
lowerneck -10.1083 -4.02611 -8.02697
upperneck 20.0138 -3.63879 -2.03018
head 8.00983 -2.51841 0.293707
rclavicle -8.1129e-015 -7.95139e-016
rhumerus -19.6126 -33.5494 -64.1529
rradius 9.54647
rwrist 2.57581
rhand -13.4195 23.5771
rfingers 7.12502
rthumb 12.6888 -6.0174
lclavicle -8.1129e-015 -7.95139e-016
lhumerus -39.2118 -2.955 86.8637
lradius 37.0194
lwrist -3.54084
lhand 1.23848 46.1696
lfingers 7.12502
lthumb 26.7761 74.2945
rfemur -4.07326 -4.18376 24.3346
rtibia 16.0094
rfoot -12.3488 -19.4689
rtoes 17.0294
lfemur -7.14658 -6.51358 -9.44236
ltibia 16.3588
lfoot -12.0073 1.50144
ltoes -8.53544
479
root -1.50668 17.5253 9.69554 3.06302 8.19915 -2.22246
lowerback 0.476878 -1.20474 2.2783
upperback -2.42395 -1.52347 1.58186
thorax -2.77259 -0.79125 0.392683
lowerneck -9.52008 -4.04484 -8.00008
upperneck 20.2052 -3.72618 -2.02008
head 7.96969 -2.56045 0.293897
rclavicle -1.21507e-014 9.54166e-015
rhumerus -20.1072 -33.4106 -63.9668
rradius 10.2224
rwrist 2.77625
rhand -13.2811 23.9644
rfingers 7.12502
rthumb 12.8222 -5.62181
lclavicle -1.21507e-014 9.54166e-015
lhumerus -39.4452 -2.98276 86.8744
lradius 36.7471
lwrist -3.64348
lhand 0.965997 45.8262
lfingers 7.12502
lthumb 26.5153 73.9907
rfemur -4.02931 -4.03913 24.4484
rtibia 15.9455
rfoot -12.3507 -19.4299
rtoes 17.0783
lfemur -7.14983 -6.55459 -9.35956
ltibia 16.3652
lfoot -11.934 1.69512
ltoes -8.90729
480
root -1.50618 17.5291 9.67902 3.0296 8.31016 -2.38695
lowerback 0.562395 -1.24199 2.48018
upperback -2.46126 -1.56454 1.59511
thorax -2.86527 -0.816883 0.297655
lowerneck -9.45638 -4.07494 -7.92147
upperneck 20.4906 -3.78034 -2.01977
head 8.05311 -2.58805 0.273799
rclavicle 1.8108e-014 -1.43125e-014
rhumerus -19.8938 -33.9801 -63.9221
rradius 10.2551
rwrist 3.12939
rhand -13.0196 23.885
rfingers 7.12502
rthumb 13.0743 -5.68525
lclavicle 1.8108e-014 -1.43125e-014
lhumerus -39.3506 -2.85734 86.8116
lradius 36.6111
lwrist -3.64675
lhand 1.13223 45.6981
lfingers 7.12502
lthumb 26.6744 73.8385
rfemur -4.03257 -4.1662 24.5751
rtibia 15.8189
rfoot -12.3445 -19.3106
rtoes 17.5363
lfemur -7.17603 -6.65996 -9.19637
ltibia 16.3355
lfoot -11.7373 1.75814
ltoes -8.90357
481
root -1.51345 17.5308 9.6673 3.22547 8.26208 -2.3737
lowerback 0.369753 -1.23941 2.36326
upperback -2.50516 -1.5685 1.62978
thorax -2.79768 -0.815565 0.394587
lowerneck -9.50496 -4.10172 -7.9574
upperneck 20.7922 -3.80156 -2.00006
head 8.16557 -2.60751 0.27925
rclavicle -6.21202e-016 -1.23246e-014
rhumerus -19.3663 -32.636 -64.4567
rradius 10.4831
rwrist 2.07366
rhand -13.18 24.1362
rfingers 7.12502
rthumb 12.9196 -5.44382
lclavicle -6.21202e-016 -1.23246e-014
lhumerus -39.212 -2.70891 86.7427
lradius 36.3937
lwrist -3.80534
lhand 1.19713 45.8925
lfingers 7.12502
lthumb 26.7365 74.0234
rfemur -4.18997 -4.26827 24.5885
rtibia 15.6679
rfoot -12.0196 -19.1923
rtoes 15.7044
lfemur -7.48764 -6.75658 -9.18353
ltibia 16.4624
lfoot -11.8807 1.93592
ltoes -8.98404
